<?xml version="1.0" standalone="no"?>
<!DOCTYPE svg PUBLIC "-//W3C//DTD SVG 20010904//EN"
 "http://www.w3.org/TR/2001/REC-SVG-20010904/DTD/svg10.dtd">
<svg version="1.0" xmlns="http://www.w3.org/2000/svg"
 width="100.000000pt" height="100.000000pt" viewBox="0 0 100.000000 100.000000"
 preserveAspectRatio="xMidYMid meet">
<metadata>
Created by potrace 1.14, written by Peter Selinger 2001-2017
</metadata>
<g transform="translate(0.000000,100.000000) scale(0.100000,-0.100000)"
fill="#000000" stroke="none">
<path d="M379 985 c-129 -33 -268 -143 -322 -255 -54 -112 -69 -239 -42 -355
27 -115 147 -264 255 -317 172 -85 374 -71 519 36 133 98 201 225 206 386 7
191 -82 354 -246 451 -61 36 -78 42 -146 46 -43 3 -83 9 -90 14 -14 12 -73 9
-134 -6z"/>
</g>
</svg>
